<svg width="144" height="180" viewBox="0 0 144 180" fill="none" xmlns="http://www.w3.org/2000/svg">
<path opacity="0.2" d="M142.75 146V145.5H142.25H68.2579L107.59 108.367C107.591 108.366 107.591 108.365 107.592 108.365C119.109 97.6817 126.911 88.1319 130.951 79.7164C134.984 71.3136 137 62.3228 137 52.75C137 42.16 134.225 32.9735 128.66 25.2134C123.267 17.2947 115.606 11.2399 105.7 7.04163C95.957 2.6751 84.5528 0.5 71.5 0.5C55.9376 0.5 42.1117 3.4285 30.034 9.29906C17.9607 15.0008 8.47235 22.9741 1.58502 33.2211L1.30059 33.6443L1.72926 33.9204L31.2293 52.9203L31.6299 53.1784L31.9069 52.7906C36.0258 47.024 41.1258 42.7492 47.2088 39.9543L47.2088 39.9544L47.2187 39.9496C53.3096 36.9865 60.1501 35.5 67.75 35.5C76.8583 35.5 83.6415 37.4061 88.1826 41.1364L88.1901 41.1425L88.1978 41.1483C92.8863 44.7051 95.25 49.8791 95.25 56.75C95.25 61.4934 94.024 66.333 91.5543 71.2734C89.0924 76.0316 84.3078 81.8178 77.1563 88.6369C77.1558 88.6373 77.1554 88.6377 77.155 88.6381L9.65669 152.386L9.5 152.534V152.75V179V179.5H10H142.25H142.75V179V146Z" stroke="#F22E2F"/>
</svg>
