<svg width="141" height="178" viewBox="0 0 141 178" fill="none" xmlns="http://www.w3.org/2000/svg">
<path d="M140.25 145V178H8V151.75L75.5 88C82.6667 81.1667 87.5 75.3333 90 70.5C92.5 65.5 93.75 60.5833 93.75 55.75C93.75 48.75 91.3333 43.4167 86.5 39.75C81.8333 35.9167 74.9167 34 65.75 34C58.0833 34 51.1667 35.5 45 38.5C38.8333 41.3333 33.6667 45.6667 29.5 51.5L0 32.5C6.83333 22.3333 16.25 14.4167 28.25 8.74999C40.25 2.91666 54 0 69.5 0C82.5 0 93.8333 2.16666 103.5 6.49999C113.333 10.6667 120.917 16.6667 126.25 24.5C131.75 32.1667 134.5 41.25 134.5 51.75C134.5 61.25 132.5 70.1667 128.5 78.5C124.5 86.8333 116.75 96.3333 105.25 107L65 145H140.25Z" fill="#F22E2F"/>
</svg>
