<svg width="143" height="180" viewBox="0 0 143 180" fill="none" xmlns="http://www.w3.org/2000/svg">
<path opacity="0.2" d="M84.1411 34L48.8753 73.919L48.75 74.0608V74.25V101V101.5H49.25H67.75C78.6279 101.5 86.6994 103.288 92.0381 106.793C97.3401 110.274 100 115.482 100 122.5C100 129.503 97.1637 134.93 91.471 138.835C85.7489 142.594 77.8587 144.5 67.75 144.5C58.6345 144.5 49.6849 143.174 40.8999 140.523C32.2826 137.705 24.6676 133.813 18.05 128.85L17.5738 128.493L17.3042 129.024L1.55423 160.024L1.36019 160.405L1.70785 160.656C10.0969 166.696 20.2357 171.385 32.1144 174.731L32.1224 174.733C44.1638 177.911 56.3733 179.5 68.75 179.5C84.6351 179.5 98.0468 176.909 108.965 171.701C120.032 166.503 128.28 159.612 133.674 151.016L133.676 151.012C139.058 142.267 141.75 132.759 141.75 122.5C141.75 109.221 137.628 98.0971 129.369 89.1626C121.267 80.2342 109.699 74.4939 94.7177 71.9055L133.626 27.5798L133.75 27.4383V27.25V1V0.5H133.25H10.75H10.25V1V33.5V34H10.75H84.1411Z" stroke="#F22E2F"/>
</svg>
