<svg width="140" height="178" viewBox="0 0 140 178" fill="none" xmlns="http://www.w3.org/2000/svg">
<path d="M91.75 71.25C107.083 73.75 118.833 79.5 127 88.5C135.167 97.3333 139.25 108.333 139.25 121.5C139.25 131.667 136.583 141.083 131.25 149.75C125.917 158.25 117.75 165.083 106.75 170.25C95.9167 175.417 82.5833 178 66.75 178C54.4167 178 42.25 176.417 30.25 173.25C18.4167 169.917 8.33333 165.25 0 159.25L15.75 128.25C22.4167 133.25 30.0833 137.167 38.75 140C47.5833 142.667 56.5833 144 65.75 144C75.9167 144 83.9167 142.083 89.75 138.25C95.5833 134.25 98.5 128.667 98.5 121.5C98.5 107.167 87.5833 100 65.75 100H47.25V73.25L83.25 32.5H8.75V0H131.25V26.25L91.75 71.25Z" fill="#F22E2F"/>
</svg>
