<svg width="146" height="146" viewBox="0 0 146 146" fill="none" xmlns="http://www.w3.org/2000/svg">
<path d="M113.305 45.165C111.977 44.5511 110.427 44.6555 109.199 45.4325C107.967 46.2178 107.219 47.5795 107.219 49.0415V56.1758C107.219 58.5357 105.302 60.4531 102.942 60.4531C100.828 60.4531 99.0402 58.9327 98.6937 56.865C95.2137 35.2944 79.3658 0 73 0C66.6342 0 50.7863 35.2944 47.3108 56.8399C46.9601 58.9327 45.1722 60.4531 43.0586 60.4531C40.6986 60.4531 38.7812 58.5357 38.7812 56.1758V49.0412C38.7812 47.5792 38.0336 46.2176 36.8014 45.4322C35.5693 44.6552 34.0277 44.5508 32.6954 45.1648C18.1339 51.9569 8.83984 81.5558 8.83984 98.9492C8.83984 126.652 35.2225 146 73 146C110.777 146 137.16 126.652 137.16 98.9492C137.16 81.5558 127.866 51.9569 113.305 45.165Z" fill="url(#paint0_linear_126_4386)"/>
<path d="M93.7462 88.147C92.9652 86.8855 91.5907 86.117 90.1079 86.117H80.6176L77.1464 72.249C76.7121 70.5113 75.2458 69.2289 73.4665 69.0327C71.6494 68.8448 69.9744 69.7761 69.1723 71.3719L52.0629 105.591C51.3988 106.915 51.4698 108.49 52.2508 109.751C53.0319 111.013 54.4063 111.781 55.8891 111.781H65.3794L68.8506 125.649C69.2849 127.387 70.7512 128.669 72.5306 128.865C74.361 129.058 76.04 128.091 76.8247 126.526L93.9341 92.3075C94.5982 90.9832 94.5272 89.4086 93.7462 88.147Z" fill="url(#paint1_linear_126_4386)"/>
<defs>
<linearGradient id="paint0_linear_126_4386" x1="73" y1="146" x2="73" y2="0" gradientUnits="userSpaceOnUse">
<stop stop-color="#FD0000"/>
<stop offset="1" stop-color="#FFCB44"/>
</linearGradient>
<linearGradient id="paint1_linear_126_4386" x1="72.9985" y1="128.89" x2="72.9985" y2="69.0088" gradientUnits="userSpaceOnUse">
<stop stop-color="#FFE59A"/>
<stop offset="1" stop-color="#FFFFD5"/>
</linearGradient>
</defs>
</svg>
