<svg width="40" height="40" viewBox="0 0 40 40" fill="none" xmlns="http://www.w3.org/2000/svg">
<path d="M20.0011 39.9975C31.0446 39.9975 40 31.0435 40 19.9982C40 8.95397 31.0446 0 20.0011 0C8.95433 0 0 8.95433 0 19.9982C0 31.0435 8.95433 39.9975 20.0011 39.9975Z" fill="url(#paint0_linear_126_4328)"/>
<path fill-rule="evenodd" clip-rule="evenodd" d="M20 13.4589C16.3938 13.4589 13.4599 16.3928 13.4599 19.999C13.4599 23.6052 16.3938 26.5391 20 26.5391C23.6063 26.5391 26.5402 23.6052 26.5402 19.999C26.5402 16.3927 23.6063 13.4589 20 13.4589ZM20 23.9953C17.7929 23.9953 16.0038 22.2061 16.0038 19.999C16.0038 17.7919 17.793 16.0028 20 16.0028C22.2071 16.0028 23.9963 17.7919 23.9963 19.999C23.9963 22.2061 22.2071 23.9953 20 23.9953Z" fill="white"/>
<path d="M28.12 13.508C28.12 14.3735 27.4183 15.0751 26.5528 15.0751C25.6873 15.0751 24.9857 14.3735 24.9857 13.508C24.9857 12.6425 25.6873 11.9408 26.5528 11.9408C27.4183 11.9408 28.12 12.6425 28.12 13.508Z" fill="white"/>
<path fill-rule="evenodd" clip-rule="evenodd" d="M25.1104 7.35547H14.8896C10.7358 7.35547 7.35645 10.7348 7.35645 14.8886V25.1094C7.35645 29.2632 10.7358 32.6426 14.8896 32.6426H25.1104C29.2642 32.6426 32.6436 29.2632 32.6436 25.1094V14.8886C32.6435 10.7348 29.2642 7.35547 25.1104 7.35547ZM30.0997 25.1094C30.0997 27.8649 27.8659 30.0987 25.1104 30.0987H14.8896C12.1341 30.0987 9.90033 27.8649 9.90033 25.1094V14.8886C9.90033 12.1331 12.1341 9.89935 14.8896 9.89935H25.1104C27.8659 9.89935 30.0997 12.1331 30.0997 14.8886V25.1094Z" fill="white"/>
<defs>
<linearGradient id="paint0_linear_126_4328" x1="20.4938" y1="40.9974" x2="19.9846" y2="0.506372" gradientUnits="userSpaceOnUse">
<stop stop-color="#FFC107"/>
<stop offset="0.507" stop-color="#F44336"/>
<stop offset="0.99" stop-color="#9C27B0"/>
</linearGradient>
</defs>
</svg>
