<svg width="70" height="47" viewBox="0 0 70 47" fill="none" xmlns="http://www.w3.org/2000/svg">
<path d="M46.3062 46.6667H0V0H46.3062V15.9676H44.1596V2.16331H2.1466V44.5032H44.1596V30.5959H46.3062V46.6667Z" fill="#F41D0D"/>
<path d="M9.46094 18.541H11.6115V22.6729L14.6899 18.541H17.2708L13.7355 22.9167L17.553 28.0239H14.8244L11.6115 23.5128V28.0239H9.46094V18.541Z" fill="#F41D0D"/>
<path d="M23.1627 26.0677C24.8974 26.0677 25.7972 24.8324 25.7972 23.2813C25.7972 21.5989 24.6365 20.4949 23.1627 20.4949C21.6497 20.4949 20.5282 21.5989 20.5282 23.2813C20.5282 24.8586 21.7021 26.0677 23.1627 26.0677ZM23.1627 18.5234C25.9405 18.5234 28.0144 20.3503 28.0144 23.2813C28.0144 26.0677 25.9405 28.0394 23.1627 28.0394C20.3849 28.0394 18.311 26.2123 18.311 23.2813C18.311 20.6132 20.2543 18.5234 23.1627 18.5234Z" fill="#F41D0D"/>
<path d="M37.0606 28.0233L32.598 22.3334V28.0233H30.5815V18.543H32.302L36.765 24.2573L36.7621 18.5433H38.7783L38.7812 28.0233H37.0606Z" fill="#F41D0D"/>
<path d="M41.3699 18.541H49.1662V20.5731H46.3434V28.0239H44.1926V20.5731H41.3699V18.541Z" fill="#F41D0D"/>
<path d="M59.601 23.9448C59.601 26.8441 57.7729 28.0227 55.7567 28.0227C53.3371 28.0227 51.6567 26.6271 51.6567 23.8502V18.5449H53.8075V23.3895C53.8075 24.8662 54.2511 25.9905 55.7567 25.9905C57.0605 25.9905 57.4504 25.0288 57.4504 23.5114V18.5449H59.601V23.9448Z" fill="#F41D0D"/>
<path d="M64.3363 20.6042V22.7038H65.1158C65.9359 22.7038 66.581 22.4059 66.581 21.6066C66.581 21.0783 66.3137 20.602 65.2786 20.602C64.9561 20.602 64.78 20.5906 64.3363 20.6042ZM62.1855 28.0227V18.5449C62.7098 18.5449 65.1158 18.5449 65.3848 18.5449C67.9522 18.5449 68.8662 19.8321 68.8662 21.5796C68.8662 23.3407 67.791 24.0586 67.2801 24.316L69.9999 28.0227H67.392L65.1293 24.7359H64.3363V28.0227H62.1855Z" fill="#F41D0D"/>
</svg>
