<svg width="150" height="80" viewBox="0 0 150 80" fill="none" xmlns="http://www.w3.org/2000/svg">
<g clip-path="url(#clip0_126_4082)">
<path d="M15.1583 71.6278H8.08657L7.03722 73.7989C6.89274 74.1004 6.82051 74.3379 6.82051 74.5113C6.82051 74.843 7.07524 75.0729 7.58471 75.2011V75.5629H2.4292V75.2011C2.73336 75.1408 2.96528 75.0352 3.12496 74.8845C3.28465 74.7337 3.46714 74.4397 3.67245 74.0024L9.39826 62.1404C9.58076 61.7635 9.67201 61.4619 9.67201 61.2358C9.67201 60.889 9.45149 60.6402 9.01046 60.4894V60.1276H14.531V60.4894C14.0823 60.6176 13.858 60.84 13.858 61.1566C13.858 61.3752 13.9302 61.624 14.0747 61.9029L20.0058 73.7989C20.2568 74.304 20.4773 74.6508 20.6674 74.8392C20.8575 75.0202 21.1122 75.1408 21.4316 75.2011V75.5629H15.7058V75.2011C16.2076 75.1182 16.4586 74.8845 16.4586 74.5C16.4586 74.3417 16.3825 74.108 16.2305 73.7989L15.1583 71.6278ZM14.1774 69.5132L11.6566 64.0175L9.1017 69.5132H14.1774Z" fill="#E31E24"/>
<path d="M37.5483 61.3149V69.9655C37.5483 71.6014 37.2441 72.8264 36.6358 73.6406C35.5408 75.1031 33.2786 75.8343 29.8492 75.8343C27.3703 75.8343 25.4731 75.4385 24.1576 74.647C23.3896 74.1871 22.8573 73.5614 22.5608 72.7699C22.2718 71.9859 22.1273 71.0511 22.1273 69.9655V61.3149C22.1273 61.0812 22.0741 60.9041 21.9677 60.7835C21.8612 60.6628 21.6711 60.5648 21.3974 60.4894V60.1276H26.2677V60.4894C25.994 60.5573 25.8001 60.6553 25.686 60.7835C25.5796 60.9041 25.5263 61.0812 25.5263 61.3149V69.0156C25.5263 69.9052 25.5758 70.5648 25.6746 70.9945C25.7735 71.4167 25.9598 71.771 26.2335 72.0575C26.9635 72.8264 28.2105 73.2109 29.9747 73.2109C31.7464 73.2109 32.9973 72.8264 33.7272 72.0575C33.9934 71.771 34.1759 71.4167 34.2747 70.9945C34.3736 70.5648 34.423 69.9052 34.423 69.0156V61.3149C34.423 61.0812 34.3698 60.9041 34.2633 60.7835C34.1569 60.6628 33.9668 60.5648 33.693 60.4894V60.1276H38.2782V60.4894C38.0045 60.5648 37.8144 60.6628 37.7079 60.7835C37.6015 60.9041 37.5483 61.0812 37.5483 61.3149Z" fill="#E31E24"/>
<path d="M48.9542 62.6719V74.3756C48.9542 74.6093 49.0075 74.7865 49.1139 74.9071C49.2204 75.0277 49.4105 75.1257 49.6842 75.2011V75.5629H44.8253V75.2011C45.099 75.1257 45.2891 75.0277 45.3956 74.9071C45.502 74.7865 45.5553 74.6093 45.5553 74.3756V62.6719H40.7191C40.491 62.6719 40.3161 62.7247 40.1944 62.8302C40.0728 62.9282 39.9739 63.1129 39.8979 63.3843H39.5329V59.3926H39.8979C39.9815 59.6715 40.0804 59.8637 40.1944 59.9693C40.3161 60.0748 40.491 60.1276 40.7191 60.1276H53.779C54.0147 60.1276 54.1934 60.0748 54.3151 59.9693C54.4367 59.8637 54.5356 59.6715 54.6116 59.3926H54.9766V63.3843H54.6116C54.5356 63.1129 54.4367 62.9282 54.3151 62.8302C54.1934 62.7247 54.0147 62.6719 53.779 62.6719H48.9542Z" fill="#E31E24"/>
<path d="M64.934 59.8562C67.6487 59.8562 69.8006 60.5837 71.3898 62.0386C73.0703 63.5614 73.9106 65.529 73.9106 67.9414C73.9106 69.419 73.5075 70.7985 72.7015 72.0801C71.1275 74.5829 68.5459 75.8343 64.9569 75.8343C62.265 75.8343 60.1245 75.1068 58.5353 73.6519C57.6836 72.8754 57.0373 71.9444 56.5963 70.8588C56.2085 69.9014 56.0145 68.895 56.0145 67.8396C56.0145 66.2942 56.4138 64.8807 57.2122 63.5991C58.7406 61.1491 61.3145 59.9014 64.934 59.8562ZM64.9454 62.4683C63.4627 62.4683 62.227 62.9056 61.2385 63.7801C60.0675 64.8129 59.482 66.166 59.482 67.8396C59.482 69.5132 60.0675 70.8664 61.2385 71.8992C62.227 72.7736 63.4703 73.2109 64.9683 73.2109C66.4662 73.2109 67.7057 72.7736 68.6866 71.8992C69.2721 71.379 69.7207 70.742 70.0325 69.9881C70.3063 69.3172 70.4431 68.6236 70.4431 67.9075C70.4431 66.1585 69.8576 64.7827 68.6866 63.7801C67.6905 62.9207 66.4434 62.4834 64.9454 62.4683Z" fill="#E31E24"/>
<path d="M80.4918 69.2644V74.3869C80.4918 74.6131 80.545 74.7902 80.6515 74.9184C80.7656 75.039 80.9557 75.1332 81.2218 75.2011V75.5629H76.3628V75.2011C76.6366 75.1257 76.8267 75.0277 76.9331 74.9071C77.0396 74.7865 77.0928 74.6131 77.0928 74.3869V61.3149C77.0928 61.0812 77.0396 60.9041 76.9331 60.7835C76.8267 60.6628 76.6366 60.5648 76.3628 60.4894V60.1276H86.1036C87.2898 60.1276 88.2289 60.1954 88.9208 60.3311C89.6204 60.4668 90.2287 60.7043 90.7458 61.0435C91.3465 61.4355 91.7952 61.967 92.0917 62.638C92.3731 63.2863 92.5137 63.9798 92.5137 64.7186C92.5137 67.2365 91.1032 68.7103 88.2821 69.14L91.3047 73.4031C91.837 74.1494 92.2248 74.6319 92.4681 74.8505C92.719 75.0616 93.0232 75.1785 93.3806 75.2011V75.5629H87.746V75.2011C88.1338 75.1408 88.3277 75.0051 88.3277 74.794C88.3277 74.6583 88.149 74.3304 87.7916 73.8102L84.6436 69.2644H80.4918ZM80.4918 66.7201H85.7386C86.5142 66.7201 87.0617 66.6975 87.381 66.6523C87.7004 66.607 87.9932 66.5128 88.2593 66.3696C88.8372 66.0605 89.1262 65.5026 89.1262 64.696C89.1262 63.8894 88.8372 63.3315 88.2593 63.0224C87.9855 62.8717 87.6928 62.7774 87.381 62.7397C87.0769 62.6945 86.5294 62.6719 85.7386 62.6719H80.4918V66.7201Z" fill="#E31E24"/>
<path d="M99.3801 68.7895V73.0186H109.395C109.623 73.0186 109.798 72.9659 109.919 72.8603C110.041 72.7548 110.14 72.5663 110.216 72.2949H110.581V76.2866H110.216C110.14 76.0153 110.041 75.8268 109.919 75.7212C109.798 75.6157 109.623 75.5629 109.395 75.5629H95.2512V75.2011C95.5249 75.1257 95.715 75.0277 95.8215 74.9071C95.9279 74.7865 95.9812 74.6093 95.9812 74.3756V61.3149C95.9812 61.0812 95.9279 60.9041 95.8215 60.7835C95.715 60.6628 95.5249 60.5648 95.2512 60.4894V60.1276H109.121C109.349 60.1276 109.524 60.0748 109.646 59.9693C109.767 59.8562 109.866 59.664 109.942 59.3926H110.307V63.3843H109.942C109.866 63.1204 109.767 62.9357 109.646 62.8302C109.524 62.7247 109.349 62.6719 109.121 62.6719H99.3801V66.3357H105.699C105.927 66.3357 106.102 66.2829 106.224 66.1773C106.345 66.0718 106.444 65.8833 106.52 65.6119H106.885V69.5132H106.52C106.444 69.2493 106.345 69.0646 106.224 68.9591C106.102 68.846 105.927 68.7895 105.699 68.7895H99.3801Z" fill="#E31E24"/>
<path d="M124.405 71.6278H117.333L116.284 73.7989C116.139 74.1004 116.067 74.3379 116.067 74.5113C116.067 74.843 116.322 75.0729 116.831 75.2011V75.5629H111.676V75.2011C111.98 75.1408 112.212 75.0352 112.372 74.8845C112.531 74.7337 112.714 74.4397 112.919 74.0024L118.645 62.1404C118.827 61.7635 118.919 61.4619 118.919 61.2358C118.919 60.889 118.698 60.6402 118.257 60.4894V60.1276H123.778V60.4894C123.329 60.6176 123.105 60.84 123.105 61.1566C123.105 61.3752 123.177 61.624 123.321 61.9029L129.252 73.7989C129.503 74.304 129.724 74.6508 129.914 74.8392C130.104 75.0202 130.359 75.1408 130.678 75.2011V75.5629H124.952V75.2011C125.454 75.1182 125.705 74.8845 125.705 74.5C125.705 74.3417 125.629 74.108 125.477 73.7989L124.405 71.6278ZM123.424 69.5132L120.903 64.0175L118.348 69.5132H123.424Z" fill="#E31E24"/>
<path d="M136.13 73.0186H145.7C145.936 73.0186 146.114 72.9659 146.236 72.8603C146.358 72.7548 146.456 72.5663 146.533 72.2949H146.898V76.2866H146.533C146.456 76.0153 146.358 75.8268 146.236 75.7212C146.114 75.6157 145.936 75.5629 145.7 75.5629H132.001V75.2011C132.275 75.1257 132.465 75.0277 132.572 74.9071C132.678 74.7865 132.731 74.6093 132.731 74.3756V61.3149C132.731 61.0812 132.678 60.9041 132.572 60.7835C132.465 60.6628 132.275 60.5648 132.001 60.4894V60.1276H136.86V60.4894C136.586 60.5573 136.396 60.6553 136.29 60.7835C136.183 60.9041 136.13 61.0812 136.13 61.3149V73.0186Z" fill="#E31E24"/>
<path fill-rule="evenodd" clip-rule="evenodd" d="M71.5335 49.1266C77.7642 49.1266 83.4497 46.8122 87.7642 43.0036C90.6386 40.4661 92.9045 37.2659 94.3167 33.6435H96.5857C103.16 33.6435 106.437 30.4588 107.894 28.5074H95.6843L95.6865 28.4914L95.6891 28.4755L95.6917 28.4596L95.6939 28.4437L95.6965 28.4278L95.6986 28.4123V28.4119L95.7008 28.3964V28.396L95.7034 28.3805V28.3801L95.7056 28.3646V28.3642L95.7082 28.3487V28.3483L95.7104 28.3328V28.3323L95.7125 28.3169V28.3164L95.7147 28.301V28.3005L95.7169 28.285V28.2846L95.7195 28.2696V28.2687L95.7216 28.2536V28.2528L95.7238 28.2377V28.2369L95.726 28.2218V28.221L95.7281 28.2059V28.2051L95.7303 28.19V28.1891L95.7325 28.1741V28.1732L95.7346 28.1582V28.1573L95.7368 28.1418V28.1414L95.739 28.1259V28.1255L95.7412 28.11V28.1096L95.7433 28.0945V28.0937L95.7455 28.0782V28.0778L95.7472 28.0623V28.0619L95.7494 28.0464V28.046L95.7516 28.0305V28.03L95.7537 28.0146V28.0141L95.7555 27.9987V27.9982L95.7576 27.9827V27.9819L95.7598 27.9664V27.966L95.7615 27.9505V27.9501L95.7637 27.9346V27.9341L95.7654 27.9187V27.9182L95.7676 27.9028V27.9023L95.7698 27.8864V27.886L95.7715 27.8705V27.8701L95.7737 27.8546V27.8542L95.7754 27.8387V27.8383L95.7776 27.8228V27.8223L95.7793 27.8069V27.806L95.7811 27.7905L95.7828 27.7746L95.785 27.7587V27.7583L95.7867 27.7424L95.7889 27.7265L95.7906 27.7105V27.7101L95.7923 27.6946V27.6942L95.7945 27.6783L95.7962 27.6624L95.798 27.6465V27.646L95.7997 27.6301L95.8014 27.6142L95.8032 27.5979L95.8054 27.582L95.8071 27.5661L95.8088 27.5497L95.8105 27.5338L95.8123 27.5179L95.814 27.5016L95.8158 27.4856H107.894C107.989 27.4856 108.083 27.4848 108.176 27.4835L108.219 27.4826L108.465 27.477L108.55 27.4745L108.782 27.4659L108.797 27.465L108.815 27.4641L109.054 27.4512L109.104 27.4482L109.356 27.4306L109.389 27.428C109.479 27.4211 109.568 27.4138 109.655 27.4052L109.663 27.4048L109.903 27.3803L109.935 27.3773L109.955 27.3747L110.173 27.3489L110.241 27.3403L110.457 27.3115L110.511 27.3037L110.687 27.2771L110.784 27.2616L110.967 27.2311L111.028 27.2208L111.227 27.1838L111.296 27.1704L111.461 27.1369L111.496 27.1296L111.504 27.1283L111.545 27.1193L111.715 27.0823L111.75 27.0745L111.787 27.0664L111.965 27.0238L112.042 27.0049L112.07 26.998L112.21 26.9623H112.211L112.289 26.9412L112.393 26.9133L112.485 26.8875L112.62 26.8488L112.646 26.8411L112.728 26.8165L112.753 26.8092L112.886 26.7684L112.995 26.7331L113.05 26.7155L113.146 26.6837L113.274 26.6402L113.299 26.6312L113.4 26.5955L113.525 26.5504L113.642 26.5065L113.662 26.4988L113.873 26.4166L113.902 26.405L114.011 26.3603L114.129 26.3108L114.243 26.2618L114.255 26.2567L114.46 26.1642L114.484 26.1535C114.593 26.1031 114.701 26.052 114.807 25.9995L114.808 25.9991L114.916 25.9449C115.06 25.8718 115.2 25.7974 115.336 25.7217L115.438 25.665C115.573 25.5884 115.704 25.5102 115.832 25.4315L115.928 25.3721C116.053 25.2926 116.177 25.2122 116.296 25.1309L116.385 25.0698C117.698 24.1586 118.603 23.1507 119.2 22.3495H95.8158C95.7785 22.0068 95.7364 21.6663 95.6843 21.3291H119.2C125.774 21.3291 129.051 18.1427 130.507 16.1913H94.3167C90.7848 7.13304 81.9156 0.709473 71.5335 0.709473C61.1501 0.709473 52.2822 7.13304 48.7489 16.1913H12.5591C14.0152 18.1427 17.2925 21.3291 23.8663 21.3291H47.3818C47.3293 21.6663 47.2872 22.0068 47.2499 22.3495H23.8663C25.322 24.3005 28.5989 27.4856 35.1727 27.4856H47.2499C47.2872 27.8288 47.3306 28.1685 47.3818 28.5074H35.1727C36.0437 29.6736 37.5648 31.2801 40.0511 32.3844L40.1712 32.4373L40.2692 32.479L40.3221 32.5013L40.4163 32.54L40.5412 32.5904L40.6635 32.6381L40.6813 32.645C40.7537 32.6729 40.827 32.7 40.9008 32.7271L40.945 32.743L41.0556 32.7821L41.1879 32.8281L41.1992 32.832L41.2968 32.8643L41.3219 32.8729L41.4577 32.9163L41.5093 32.9326L41.6516 32.9765L41.7045 32.992L41.8736 33.0414L41.9118 33.0522L41.9413 33.0599L42.1118 33.1064L42.1447 33.1154L42.1595 33.1193L42.3044 33.1558L42.3326 33.1631L42.4241 33.1851L42.5997 33.2268L42.624 33.2324L42.6531 33.2388L42.8474 33.2814L42.87 33.2861L42.9012 33.2926L43.0907 33.3308L43.1606 33.3442L43.3549 33.3799L43.3662 33.382L43.3753 33.3837L43.4143 33.3902L43.5835 33.4186L43.6698 33.4323L43.8784 33.4637L43.9326 33.4715L44.1248 33.4973L44.1664 33.5028L44.1751 33.5037L44.2024 33.5071L44.3889 33.5291L44.4765 33.5385L44.6804 33.5596L44.7168 33.563L44.7524 33.5661L44.9767 33.5854L44.9992 33.5871L45.0265 33.5893L45.2642 33.6056L45.3072 33.6082L45.5583 33.622L45.5774 33.6228L45.6073 33.6241L45.8372 33.6327L45.8919 33.6349L46.1491 33.6404L46.2107 33.6413C46.3 33.6426 46.3894 33.6435 46.48 33.6435H48.7489C50.1616 37.2659 52.4279 40.4661 55.3019 43.0036C55.9096 43.5398 56.5442 44.0477 57.2039 44.5224C57.3258 44.6101 57.4485 44.697 57.5721 44.7826H57.5726C57.6958 44.8681 57.8202 44.9524 57.9456 45.0358C58.1963 45.2023 58.45 45.3648 58.7072 45.5222C58.8356 45.6009 58.9653 45.6787 59.095 45.7553H59.0954C59.2256 45.8318 59.3561 45.9071 59.4876 45.9814H59.488C59.6194 46.0554 59.7517 46.1285 59.8849 46.2003H59.8853C60.0185 46.2721 60.152 46.3427 60.2865 46.4119H60.2869C60.4214 46.4816 60.5567 46.5495 60.6925 46.6166H60.6929C60.8291 46.6832 60.9653 46.749 61.1032 46.8135C61.2407 46.878 61.3791 46.9412 61.5179 47.0036C61.6571 47.0655 61.7959 47.1261 61.9365 47.1855H61.9369C62.077 47.2453 62.218 47.3033 62.3594 47.3601C62.5012 47.4173 62.6435 47.4727 62.7862 47.5274H62.7866C62.9293 47.5815 63.0729 47.6349 63.2169 47.6865C63.3613 47.7385 63.5062 47.7888 63.6515 47.8378C63.7968 47.8868 63.943 47.935 64.0896 47.9814H64.09C64.2366 48.0279 64.3836 48.073 64.5316 48.1169C64.6795 48.1608 64.8278 48.2029 64.9766 48.2442C65.1258 48.2855 65.2754 48.325 65.4255 48.3633C65.5756 48.4016 65.7265 48.4386 65.8775 48.4742H65.8779C66.0288 48.5095 66.1806 48.5439 66.3329 48.5766H66.3333C66.4856 48.6093 66.6382 48.6407 66.7918 48.6708C66.9453 48.7004 67.0989 48.7288 67.2533 48.7559C67.4077 48.783 67.5626 48.8084 67.7183 48.8329C67.8736 48.857 68.0293 48.8802 68.1858 48.9012C68.342 48.9223 68.499 48.9421 68.656 48.9606C68.8135 48.9786 68.9714 48.9954 69.1292 49.0105C69.2876 49.026 69.4463 49.0397 69.6055 49.0522C69.7642 49.0642 69.9239 49.0754 70.0835 49.0844C70.2435 49.0939 70.4036 49.1016 70.5645 49.1081C70.725 49.1141 70.8863 49.1184 71.0477 49.1218C71.2095 49.1249 71.3708 49.1266 71.5335 49.1266ZM93.1543 26.2812H93.1534C93.1443 26.4312 93.133 26.5805 93.1205 26.7288L93.12 26.737L93.1192 26.743L93.0914 27.0444L93.0897 27.0591L93.0892 27.0647L93.0884 27.0733L93.0871 27.0875L93.0866 27.0918L93.0858 27.1021L93.081 27.1451V27.1464L93.0797 27.1593L93.0784 27.1735H93.078L93.0767 27.1881L93.0754 27.2005V27.2023L93.5568 27.1782L93.3959 28.3839L92.9396 28.239V28.2395L92.9392 28.239L92.8945 28.5125H92.8941L92.8897 28.54L92.8849 28.5671L92.8754 28.6217H92.875L92.8706 28.6488L92.8659 28.6764H92.8654L92.8607 28.7034L92.8559 28.731H92.8555L92.8507 28.7581L92.8459 28.7852H92.8455L92.8407 28.8122L92.8359 28.8393H92.8355L92.8307 28.8664H92.8303L92.8255 28.8939L92.8203 28.921L92.8151 28.9481L92.8099 28.9752H92.8095L92.8043 29.0023L92.7991 29.0294L92.7939 29.0565L92.7882 29.0836L92.783 29.1107L92.7774 29.1378L92.7722 29.1649L92.7665 29.1919L92.7609 29.219L92.7553 29.2457L92.7501 29.2728H92.7496L92.7444 29.2999H92.744L92.7388 29.327H92.7383L92.7327 29.3541L92.7271 29.3811L92.7214 29.4078L92.7154 29.4349L92.7097 29.4616L92.7036 29.4882L92.698 29.5157L92.6919 29.5424L92.6863 29.5695L92.6798 29.5962L92.6741 29.6228L92.6681 29.6495L92.662 29.6766L92.6559 29.7032L92.6494 29.7299L92.6433 29.757L92.6373 29.7836L92.6308 29.8103L92.6247 29.8374L92.6186 29.8641L92.6121 29.8907L92.6056 29.9174L92.5995 29.944L92.593 29.9707L93.0706 30.0094L92.7531 31.1838L92.3193 30.9812L92.3115 31.0079L92.3037 31.0341V31.0346L92.2955 31.0608V31.0612L92.2877 31.0875L92.2799 31.1137V31.1141L92.2716 31.1403V31.1408L92.2634 31.1666V31.167L92.2556 31.1932V31.1937L92.2473 31.2199V31.2203L92.2391 31.2461V31.2466L92.2309 31.2724V31.2732L92.2226 31.299V31.2994L92.2144 31.3252V31.3257L92.2061 31.3519V31.3523L92.1979 31.3781V31.3786L92.1892 31.4044V31.4052L92.181 31.4306V31.4315L92.1727 31.4568V31.4577L92.1641 31.4835V31.4839L92.1554 31.5097V31.5106L92.1467 31.536V31.5364L92.1385 31.5622V31.5626L92.1298 31.5884V31.5893L92.1211 31.6146V31.6155L92.1124 31.6409V31.6417L92.1038 31.6671V31.6675L92.0951 31.6933V31.6938L92.086 31.7196V31.72L92.0773 31.7458V31.7462L92.0682 31.7716V31.7725L92.0595 31.7978V31.7987L92.0509 31.8241V31.8249L92.0418 31.8503V31.8507L92.0326 31.8765V31.877L92.024 31.9023V31.9032L92.0144 31.9286V31.929L92.0058 31.9544V31.9548L91.9966 31.9806V31.981L91.9871 32.0064V32.0068L91.978 32.0326V32.0331L91.9689 32.0589V32.0593L91.9598 32.0847V32.0851L91.9507 32.1105V32.1109L91.9411 32.1363V32.1371L91.9316 32.1625V32.1629L91.9225 32.1883V32.1887L91.9129 32.2141V32.2145L91.9034 32.2403L91.8943 32.2661V32.2666L91.8843 32.2919V32.2924L91.8752 32.3182L91.8657 32.3435V32.344L91.8561 32.3698L91.8461 32.3956L91.8366 32.4214L91.827 32.4472L91.8175 32.473L91.8075 32.4988L91.7976 32.5241V32.5246L91.788 32.5504L91.778 32.5762L91.7685 32.6015L91.7585 32.6273L91.7485 32.6531L92.2152 32.7516L91.7459 33.8787L91.3434 33.6185C91.3022 33.7114 91.2597 33.8043 91.2176 33.8963L91.2172 33.8972L91.1942 33.9466L91.1938 33.947L91.1352 34.0718L91.1348 34.0726L91.1118 34.1212L91.1114 34.1216L91.1109 34.1221L91.0992 34.1466V34.1474L91.0875 34.1719V34.1724L91.0754 34.1965V34.1969L91.0637 34.2214L91.0632 34.2218L91.0511 34.2463V34.2468L91.0394 34.2713L91.0389 34.2717L91.0272 34.2962L91.0268 34.2966L91.0151 34.3212H91.0146L91.0025 34.3457V34.3461L90.9904 34.3706V34.371L90.9782 34.3956H90.9778L90.9661 34.4201L90.9656 34.4205C90.8342 34.6841 90.6967 34.9438 90.5557 35.2018L91.0073 35.3622L90.3935 36.4145L90.184 36.2395L90.027 36.1074L90.0266 36.1079L90.0261 36.1074C89.9632 36.2098 89.8995 36.3113 89.8349 36.4123L89.8049 36.4592L89.775 36.5056L89.7603 36.5284H89.7598L89.7451 36.5517H89.7446L89.7299 36.5749H89.7295L89.7147 36.5981L89.6995 36.6213H89.6991L89.6843 36.6441L89.6692 36.6673H89.6687L89.654 36.6905L89.6384 36.7133L89.6232 36.7366L89.608 36.7593L89.5924 36.7826L89.5772 36.8054H89.5768L89.5616 36.8286L89.5464 36.8514H89.546L89.5308 36.8742L89.5152 36.8969L89.4996 36.9202L89.484 36.9425L89.4683 36.9658L89.4532 36.9881H89.4527L89.4371 37.0113L89.4215 37.0337L89.4059 37.0565L89.3898 37.0793L89.3742 37.1016L89.3586 37.1244L89.3426 37.1472L89.327 37.17L89.3109 37.1924L89.2949 37.2147L89.2788 37.2375L89.2628 37.2599L89.2471 37.2827L89.2311 37.305L89.215 37.3274L89.199 37.3498L89.1825 37.3721L89.1665 37.3945L89.1504 37.4168L89.1339 37.4392L89.1179 37.4616L89.1014 37.4839L89.0854 37.5063L89.0689 37.5282L89.0528 37.5506L89.0363 37.5725L89.4649 37.7927L88.7188 38.7576L88.394 38.4042L88.3935 38.405L88.3931 38.4042C88.3116 38.5039 88.2296 38.6033 88.1463 38.7022L88.0747 38.7864L88.0569 38.8075H88.0565L88.0392 38.8286H88.0387L88.0209 38.8492L88.0027 38.8703L87.9849 38.8914H87.9845L87.9667 38.912L87.9485 38.9331L87.9303 38.9541L87.9121 38.9748L87.8939 38.9959L87.8756 39.0165L87.8574 39.0376L87.8392 39.0582L87.821 39.0788H87.8206L87.8028 39.0999H87.8023L87.7841 39.1201L87.7659 39.1412H87.7655L87.7473 39.1618L87.729 39.1825H87.7286L87.7104 39.2031H87.71L87.6922 39.2238H87.6917L87.6735 39.2444H87.6731L87.6549 39.265H87.6544L87.5989 39.3265H87.5985L87.5803 39.3472L87.5616 39.3674L87.543 39.388H87.5425L87.5243 39.4082H87.5239L87.5052 39.4289L87.4866 39.4491H87.4861L87.4675 39.4693L87.4488 39.4899H87.4484L87.4298 39.5102L87.4111 39.5304H87.4107L87.392 39.5506H87.3916L87.3729 39.5708L87.3539 39.591L87.3348 39.6112L87.3157 39.6314L87.2966 39.6516L87.2775 39.6714L87.2584 39.6916L87.2393 39.7118L87.2198 39.732L87.6163 40.0029L86.7488 40.8621L86.4742 40.4695L86.4543 40.4884L86.4339 40.5074L86.4139 40.5263L86.394 40.5452H86.3935L86.3736 40.5641L86.3532 40.583L86.3328 40.602L86.3124 40.6209L86.292 40.6398L86.2721 40.6583H86.2717L86.2513 40.6772L86.2309 40.6961L86.2105 40.7146L86.1901 40.7335L86.1697 40.752L86.1489 40.771L86.1285 40.7894L86.1077 40.8079L86.0873 40.8264L86.0669 40.8449H86.0665L86.0461 40.8634H86.0457L86.0253 40.8819L86.0049 40.9004H86.0045L85.9841 40.9189L85.9633 40.9369L85.9424 40.9554L85.9216 40.9739L85.9008 40.992L85.88 41.0105L85.8592 41.029H85.8587L85.8383 41.047H85.8379L85.8175 41.0651H85.8171L85.7963 41.0836L85.7755 41.1016L85.7546 41.1197H85.7542L85.7334 41.1378L85.6913 41.1739L85.6492 41.21H85.6488L85.5859 41.2638H85.5855L85.5647 41.2814H85.5642L85.5434 41.2994H85.543L85.5009 41.3347H85.5005L85.4796 41.3528H85.4792L85.4367 41.388L85.4155 41.4061H85.415L85.3938 41.4233L85.3512 41.4585H85.3508L85.3296 41.4762L85.3083 41.4938H85.3079L85.2866 41.5114L85.2654 41.5286H85.2649L85.2437 41.5463H85.2432L85.222 41.5639L85.2003 41.5811L85.1786 41.5987L85.1569 41.6159L85.1352 41.6331L85.4935 41.9552L84.5198 42.6953L84.2981 42.2708C83.9468 42.5254 83.5876 42.7692 83.2207 43.0036H71.5335H59.845H83.2207C83.0884 43.0883 82.9548 43.1713 82.8204 43.253L83.1305 43.6159L82.0674 44.2235L81.906 43.7763L81.8817 43.7892L81.857 43.8026L81.8327 43.8155L81.8084 43.8288L81.7837 43.8417L81.7594 43.855L81.7351 43.8679L81.7104 43.8808L81.6861 43.8937L81.6614 43.9066L81.6371 43.9195L81.6124 43.9324L81.5877 43.9449L81.5634 43.9578L81.5387 43.9707L81.5139 43.9832L81.4896 43.9961H81.4892L81.4649 44.0085H81.4645L81.4402 44.0214L81.4155 44.0339H81.415L81.3907 44.0464H81.3903L81.366 44.0593H81.3656L81.3413 44.0713H81.3409L81.3166 44.0842H81.3161L81.2918 44.0963H81.2914L81.2667 44.1087L81.242 44.1212L81.2172 44.1337H81.2168L81.1921 44.1461L81.1674 44.1582L81.1426 44.1707H81.1422L81.1179 44.1827H81.1175L81.0928 44.1952L81.068 44.2072H81.0676L81.0429 44.2192H81.0424L81.0177 44.2317L80.993 44.2438H80.9926L80.9678 44.2558H80.9674L80.9427 44.2678L80.918 44.2794H80.9175L80.8928 44.2915H80.8924L80.8676 44.3035L80.8425 44.3156H80.8421L80.8173 44.3272L80.7922 44.3392L80.767 44.3508L80.7419 44.3629H80.7414L80.7167 44.3745L80.6915 44.3861L80.6664 44.3977L80.6412 44.4097H80.6408L80.6156 44.4209L80.5905 44.4325L80.5653 44.4441H80.5649L80.5397 44.4558L80.5146 44.4674L80.489 44.4785L80.4638 44.4902L80.4387 44.5013H80.4382L80.4131 44.5129L80.3875 44.5241L80.3619 44.5357L80.3367 44.5469L80.3111 44.5581L80.571 44.9567L79.4359 45.4203L79.3352 44.9584H79.3344C79.1708 45.0212 79.006 45.0823 78.8408 45.1412L78.8152 45.1502L78.7883 45.1597L78.7627 45.1687H78.7623L78.7367 45.1777L78.7098 45.1872L78.6842 45.1962H78.6837L78.6582 45.2053H78.6573L78.6317 45.2143H78.6313L78.6052 45.2233H78.6048L78.5792 45.2324H78.5788L78.5527 45.2414H78.5523L78.5263 45.25L78.5003 45.259H78.4998L78.4738 45.2681H78.4734L78.4474 45.2767H78.4469L78.4209 45.2853L78.3949 45.2939H78.3944L78.3684 45.3029H78.368L78.342 45.3115H78.3415L78.3155 45.3201L78.289 45.3287H78.2886L78.2626 45.3373H78.2621L78.2361 45.3459H78.2357L78.2097 45.3545H78.2092L78.1832 45.3627H78.1828L78.1563 45.3713L78.1299 45.3794L78.1034 45.388H78.103L78.0765 45.3962L78.05 45.4044L78.0236 45.413L77.9971 45.4211H77.9967L77.9702 45.4293L77.9438 45.4375L77.9169 45.4456L77.8904 45.4538L77.8635 45.4616L77.8366 45.4697L77.8102 45.4779L77.7833 45.4856L77.7568 45.4938L77.7299 45.5016L77.703 45.5093L77.6762 45.517L77.6493 45.5248L77.8531 45.9535L76.6686 46.2687L76.6295 45.7952C76.0553 45.9333 75.474 46.0481 74.8837 46.1384L74.8842 46.1401H74.8837L74.9405 46.3151L75.029 46.5908L73.8132 46.7516L73.8362 46.2743L73.8089 46.2773L73.7811 46.2803L73.7538 46.2829L73.7265 46.2855V46.2859L73.6992 46.2885H73.6987L73.6714 46.2911L73.6441 46.2936H73.6436L73.589 46.2992C73.1301 46.3422 72.6682 46.3702 72.2014 46.3839V46.3844L72.1733 46.3848V46.3852L72.1451 46.3857V46.3861L72.1173 46.3865L72.0891 46.3874L72.0609 46.3878L72.1472 46.8595H70.9197L71.0056 46.3878L70.9774 46.3874L70.9497 46.3865L70.9215 46.3861V46.3857L70.8933 46.3852V46.3848L70.8655 46.3844V46.3839C70.5111 46.3736 70.1585 46.3551 69.8085 46.3276V46.3272L69.7807 46.3255L69.7256 46.3212V46.3207L69.6979 46.3186L69.6706 46.3164V46.316L69.6428 46.3139L69.615 46.3117V46.3113L69.5877 46.3091L69.5604 46.307V46.3065L69.5326 46.3044V46.304L69.5053 46.3018V46.3014L69.4775 46.2992L69.4502 46.2966V46.2962L69.4224 46.2936L69.3951 46.2911L69.3678 46.2885L69.3405 46.2859V46.2855L69.3127 46.2829L69.2854 46.2803L69.2581 46.2773L69.2307 46.2743L69.2533 46.7516L68.0371 46.5908L68.126 46.3151L68.1832 46.1401H68.1828L68.1832 46.1384C67.5929 46.0481 67.0104 45.9333 66.4374 45.7952L66.3984 46.2687L65.2138 45.9535L65.4168 45.5248C64.8447 45.3592 64.283 45.1709 63.7322 44.9584L63.6302 45.4203L62.496 44.9567L62.7554 44.5581L62.6283 44.5013H62.6279L62.6027 44.4902H62.6023L62.5519 44.4674H62.5515L62.5268 44.4558H62.5264L62.5016 44.4441H62.5008L62.476 44.4325H62.4756L62.4509 44.4209H62.4505L62.4257 44.4097H62.4249L62.4001 44.3977H62.3997L62.375 44.3861H62.3745L62.3498 44.3745H62.3494L62.3247 44.3629H62.3242L62.2995 44.3508H62.2991L62.2744 44.3392H62.2739L62.2492 44.3272H62.2488L62.224 44.3156H62.2236L62.1989 44.3035H62.1984L62.1737 44.2915L62.1486 44.2794L62.1234 44.2678L62.0987 44.2558H62.0983L62.0735 44.2438L62.0484 44.2317L62.0232 44.2192L61.9985 44.2072L61.9738 44.1952H61.9733L61.9486 44.1827L61.9239 44.1707L61.8992 44.1582H61.8987L61.874 44.1461L61.8493 44.1337H61.8489L61.8241 44.1212L61.7994 44.1087L61.7747 44.0963L61.75 44.0842L61.7252 44.0713L61.7001 44.0593L61.6758 44.0464H61.6754L61.6511 44.0339L61.6263 44.0214L61.6016 44.0085L61.5769 43.9961L61.5522 43.9832L61.5279 43.9707L61.5032 43.9578L61.4784 43.9449L61.4541 43.9324L61.4294 43.9195L61.4051 43.9066L61.3804 43.8937L61.3561 43.8808L61.3314 43.8679L61.3071 43.855L61.2828 43.8417L61.2581 43.8288L61.2338 43.8155L61.2095 43.8026L61.1852 43.7892L61.1609 43.7763L60.9983 44.224L59.9347 43.6159L60.2466 43.253C60.1356 43.1855 60.025 43.1175 59.9152 43.0479L59.8684 43.0182H59.8679L59.8215 42.9885H59.8211L59.7981 42.9735L59.7747 42.9584L59.7517 42.9434H59.7513L59.7283 42.9283H59.7278L59.7049 42.9133H59.7044L59.6814 42.8982L59.6584 42.8828H59.658L59.635 42.8677L59.6116 42.8527L59.5886 42.8376H59.5882L59.5656 42.8221H59.5652L59.5422 42.8066L59.5192 42.7916L59.4958 42.7761L59.4728 42.7606L59.4498 42.7452L59.4268 42.7301L59.4038 42.7146H59.4034L59.3808 42.6991L59.3579 42.6837L59.3349 42.6682L59.3119 42.6527L59.2889 42.6368L59.2659 42.6213L59.2429 42.6054L59.2204 42.5899L59.1974 42.5744L59.1748 42.5585L59.1518 42.5426L59.1288 42.5271L59.1063 42.5112L59.0837 42.4957L59.0607 42.4798L59.0382 42.4639L59.0156 42.448L58.9931 42.4317L58.9705 42.4158L58.948 42.3999L58.925 42.3839L58.9024 42.3676L58.8803 42.3517L58.8573 42.3358L58.8352 42.3194L58.8126 42.3035L58.7901 42.2872L58.7675 42.2708L58.5463 42.6948L57.5726 41.9552L57.9304 41.6331C57.4685 41.2638 57.0213 40.8759 56.5923 40.4695L56.3173 40.8617L55.449 40.0029L55.8467 39.732C55.4368 39.3046 55.0469 38.8608 54.6734 38.4016L54.3481 38.7576L53.6016 37.7927L54.0302 37.5725L54.0137 37.5506L53.9977 37.5282L53.9812 37.5063L53.9651 37.4839L53.9486 37.4616L53.9326 37.4392L53.9161 37.4168L53.9001 37.3945L53.884 37.3721L53.8675 37.3498L53.8515 37.3274L53.8354 37.305L53.8194 37.2827L53.8033 37.2599L53.7873 37.2375L53.7717 37.2147L53.7556 37.1924L53.7396 37.17L53.7235 37.1472L53.7079 37.1244L53.6919 37.1016L53.6763 37.0793L53.6606 37.0565L53.6446 37.0337L53.629 37.0113L53.6134 36.9881L53.5977 36.9658H53.5973L53.5821 36.9425L53.5665 36.9202L53.5509 36.8969L53.5353 36.8742L53.5197 36.8514L53.5045 36.8286H53.5041L53.4889 36.8054L53.4737 36.7826H53.4733L53.4581 36.7593L53.4429 36.7366L53.4273 36.7133L53.4121 36.6905L53.3969 36.6673H53.3965L53.3817 36.6441H53.3813L53.3661 36.6213L53.3514 36.5981H53.3509L53.3362 36.5749H53.3358L53.321 36.5517L53.2911 36.5056H53.2907L53.2759 36.482H53.2755L53.2607 36.4592H53.2603L53.2308 36.4123H53.2304L53.216 36.3891H53.2156L53.0395 36.1074L53.0391 36.1079V36.1074L52.8825 36.2395L52.6734 36.4145L52.0588 35.3622L52.5103 35.2018L52.4969 35.1777L52.4839 35.1537L52.4704 35.1296L52.4574 35.1055L52.4444 35.081L52.431 35.0569L52.418 35.0328L52.4049 35.0083L52.3919 34.9842L52.3789 34.9597L52.3659 34.9352L52.3529 34.9111L52.3399 34.8866L52.3273 34.8621L52.3143 34.838L52.3017 34.8135L52.2887 34.789L52.2761 34.7645L52.2631 34.74L52.2505 34.7159V34.7155L52.238 34.6914V34.691L52.2254 34.6669V34.6665L52.2128 34.6424V34.642L52.2002 34.6174L52.1876 34.5929L52.1751 34.5684L52.1625 34.5439V34.5435L52.1503 34.519L52.1378 34.4945V34.494L52.1252 34.4695L52.113 34.445L52.1009 34.4205V34.4201L52.0887 34.3956L52.0762 34.371V34.3706L52.064 34.3461V34.3457L52.0519 34.3212L52.0393 34.2966V34.2962L52.0276 34.2717V34.2713L52.0154 34.2468V34.2463L52.0033 34.2218V34.2214L51.9912 34.1969V34.1965L51.9794 34.1724V34.1719L51.9673 34.1474V34.1466L51.9552 34.1221V34.1216C51.8758 33.9552 51.7977 33.7879 51.7235 33.6185L51.4082 33.8223L51.3202 33.8782L50.8513 32.7516L51.3184 32.6531L51.3084 32.6273L51.2985 32.6015L51.2885 32.5762L51.2785 32.5504L51.269 32.5246V32.5241L51.259 32.4988L51.249 32.473L51.2395 32.4472L51.2299 32.4214H51.2295L51.2204 32.3956H51.22L51.2104 32.3698L51.2009 32.344V32.3435L51.1913 32.3182L51.1722 32.2666V32.2661L51.1627 32.2403L51.1532 32.2145V32.2141L51.1436 32.1887V32.1883L51.1345 32.1629V32.1625L51.1159 32.1109V32.1105C51.0053 31.7987 50.9003 31.4844 50.8023 31.167V31.1666L50.7702 31.0612V31.0608L50.7624 31.0346V31.0341L50.7541 31.0079L50.7463 30.9812L50.3139 31.1838L49.9964 30.0094L50.4739 29.9707L50.4227 29.757L50.4219 29.7527C50.3061 29.2547 50.2072 28.7512 50.1278 28.239L49.6706 28.3839L49.5101 27.1782L49.9916 27.2005C49.9296 26.6209 49.8897 26.0335 49.8754 25.4422L49.4008 25.5261V24.3091L49.8754 24.3951C49.8897 23.803 49.9296 23.2152 49.9916 22.6342L49.5101 22.657L49.6706 21.4521L50.1269 21.597C50.2189 21.0118 50.3351 20.4343 50.4739 19.8671L49.9964 19.8275L50.3139 18.6514L50.7463 18.8548C50.9146 18.2885 51.1054 17.729 51.3184 17.1829L50.8513 17.084L51.3206 15.9604L51.7235 16.2154C51.963 15.6766 52.2271 15.1485 52.5103 14.6342L52.0588 14.4751L52.6734 13.4211L53.0391 13.7286C53.3501 13.2246 53.6806 12.7353 54.0302 12.2635L53.6016 12.0434L54.3481 11.0784L54.6734 11.4319C55.046 10.9739 55.4368 10.5319 55.8467 10.1066L55.449 9.8331L56.3177 8.9735L56.5923 9.36524C57.0213 8.9606 57.4693 8.57402 57.9313 8.20377L57.5726 7.88083L58.5468 7.14121L58.7675 7.56606C59.246 7.21904 59.7387 6.88879 60.2453 6.58305L59.9347 6.22011L60.9983 5.6125L61.1601 6.05757C61.6797 5.77806 62.2115 5.51704 62.7554 5.27838L62.496 4.87933L63.6302 4.41362L63.7317 4.87718C64.283 4.66561 64.8447 4.47726 65.4168 4.31042L65.2125 3.87997L66.3984 3.56649L66.4374 4.03908C67.0104 3.90319 67.5929 3.78623 68.1832 3.69636L68.0362 3.24312L69.2533 3.08359L69.2307 3.56176C69.8154 3.49984 70.407 3.46114 71.0056 3.44824L70.9197 2.97565H72.1472L72.0609 3.44824C72.6595 3.46114 73.2515 3.49984 73.8362 3.56176L73.8132 3.08359L75.0299 3.24312L74.8837 3.69636C75.474 3.78623 76.0561 3.90319 76.6295 4.03908L76.6686 3.56649L77.854 3.87997L77.6493 4.31042C78.2218 4.47726 78.7839 4.66561 79.3352 4.87718L79.4359 4.41362L80.571 4.87933L80.3111 5.27838C80.8546 5.51704 81.3864 5.77806 81.906 6.05757L82.0678 5.6125L83.1314 6.22011L82.8204 6.58305C83.327 6.89137 83.8197 7.21904 84.2981 7.56606L84.5198 7.14121L85.4935 7.88083L85.1361 8.20377C85.5985 8.57402 86.0448 8.9606 86.4742 9.36524L86.7488 8.9735L87.618 9.8331L87.2198 10.1066C87.6301 10.5319 88.0205 10.9739 88.394 11.4319L88.7188 11.0784L89.4649 12.0434L89.0363 12.2635C89.3864 12.7353 89.7169 13.2246 90.027 13.7286L90.3931 13.4211L91.0073 14.4751L90.5566 14.6342C90.8398 15.1485 91.1027 15.6766 91.3434 16.2154L91.7459 15.9604L92.2152 17.084L91.7485 17.1829C91.9602 17.729 92.1519 18.2885 92.3193 18.8548L92.7531 18.6514L93.0706 19.8275L92.593 19.8671C92.7301 20.4343 92.8472 21.0118 92.9396 21.597L93.3959 21.4521L93.5568 22.657L93.0754 22.6342C93.1378 23.2152 93.1769 23.803 93.1907 24.3951L93.6657 24.3091V25.5261L93.1907 25.4422C93.1842 25.7226 93.1721 26.0025 93.1543 26.2812Z" fill="#E31E24"/>
<path fill-rule="evenodd" clip-rule="evenodd" d="M55.7059 12.8352C56.0082 12.4568 56.3006 12.1269 56.5773 11.7851C56.2611 11.5017 56.1535 11.3275 55.7649 11.119C55.9783 10.5561 58.4168 8.37978 59.0366 8.06372C59.1759 8.21681 59.5723 8.72852 59.6656 8.93149C60.0455 8.77196 60.4871 8.42364 60.867 8.17466C61.2665 7.91322 61.6677 7.67585 62.0871 7.45912L61.561 6.44944C62.3079 6.04996 64.733 4.87172 65.6846 4.81023L66.0091 5.85258C66.8006 5.78335 67.8147 5.41225 68.7711 5.3185L68.6206 4.19315C69.247 3.88741 70.7399 3.94117 71.5211 3.93601L71.5397 5.09103L74.3508 5.27507C74.399 4.90397 74.4141 4.43009 74.5529 4.15531C75.394 4.21767 78.2888 4.86312 78.8331 5.24153L78.4458 6.34624C78.8969 6.50707 79.3536 6.68552 79.7661 6.87989C80.2107 7.08974 80.5985 7.34602 81.0235 7.47073L81.5852 6.45847C82.4497 6.75045 84.6661 8.37849 85.223 8.9216L84.8518 9.43676C84.6843 9.63586 84.6188 9.66725 84.5117 9.88741L86.5121 11.7773L87.4052 11.0502C87.7626 11.3176 88.4497 12.289 88.7962 12.7517C89.1961 13.2854 89.6876 14.0181 89.9747 14.6348L88.9771 15.2523C89.2317 15.9756 89.8233 16.8567 90.1304 17.7533L91.2955 17.3275C91.6459 18.7569 92.179 19.5563 92.4202 21.6002L91.282 21.8242L91.4837 24.5668L92.6739 24.5548C92.7433 26.0465 92.5264 27.546 92.2835 28.9668L91.0964 28.7698C90.9545 29.7528 90.5828 30.5802 90.3946 31.4613L91.4412 31.8405C91.2582 32.999 89.7713 35.306 89.6151 35.8044C89.1489 35.6754 88.9754 35.3847 88.5052 35.2476C88.3542 35.6905 87.6759 36.5423 87.3441 36.9891C87.2061 37.1744 87.0474 37.3465 86.9441 37.5245C87.2083 37.7369 87.5917 37.9936 87.8008 38.268L84.6722 41.2854C84.3178 41.0321 84.2649 40.8025 83.9296 40.4925L81.5891 42.0164L82.1417 42.9814C81.0465 43.5129 79.4482 44.4714 78.0858 44.7363L77.7076 43.776L75.0062 44.3961L75.1875 45.4639C73.8225 45.7296 72.2073 45.8173 70.7698 45.7588L70.7416 44.7199L67.9661 44.4482L67.7631 45.4131C66.9442 45.3387 64.0989 44.5595 63.5588 44.1755L63.911 43.1891C63.0024 42.9508 62.1479 42.262 61.3615 41.9992C61.2561 42.2774 61.0297 42.6361 60.8705 42.8696C60.0334 42.4869 57.7857 40.7999 57.3485 40.2551C57.4496 40.1059 57.5341 40.0014 57.6621 39.8582L57.9965 39.4204C57.2713 38.9048 56.7452 38.1446 56.062 37.4811C55.7419 37.7016 55.6079 37.9007 55.2084 38.1063C54.8883 37.5017 53.581 36.1321 52.8588 34.4851C53.1113 34.2353 53.4023 34.1768 53.7198 33.9244C53.6465 33.7111 52.7061 31.5301 52.6168 31.4011L51.6773 31.7064C51.2739 31.073 50.7287 28.388 50.6511 27.4501L51.6673 27.3215L51.5376 24.5165L50.4858 24.5118C50.5131 22.8554 50.7534 21.6629 51.0119 20.1239L52.0551 20.3531L52.9031 17.6711L51.9111 17.337C52.0768 16.5729 53.512 13.8616 53.9588 13.3959L54.8046 13.9627C55.0544 13.8006 55.1152 13.6462 55.2939 13.3886C55.4422 13.1744 55.5281 13.0575 55.7059 12.8352ZM69.4252 0.0925306C64.1735 0.559527 59.7966 2.38967 55.9358 5.36968C49.3689 10.4391 45.7636 18.6954 46.4854 27.0575C47.0146 33.1925 49.444 37.7937 53.2687 42.0435C54.5348 43.4501 56.789 45.2097 58.455 46.1979C66.0893 50.7247 75.5102 51.1078 83.3497 46.8954C85.8164 45.5701 86.9368 44.6692 88.8088 43.0085C89.413 42.4722 89.7708 42.0001 90.3568 41.4191L91.7314 39.7365C93.0651 37.9162 94.2497 35.8681 95.0621 33.6612C97.655 26.6193 97.0577 19.7537 93.6949 13.1861C90.9511 7.82764 85.9504 3.70337 80.3443 1.57694C77.1194 0.35398 73.2027 -0.243311 69.4252 0.0925306Z" fill="#E31E24"/>
<path fill-rule="evenodd" clip-rule="evenodd" d="M76.8198 16.4828C80.7981 16.4828 85.5134 16.1895 86.5088 20.5636C86.8285 22.0674 86.6806 23.3931 86.0083 24.5941C85.5888 25.3432 84.9074 25.971 84.1987 26.3723C83.9441 26.5167 83.6097 26.6169 83.349 26.7739C83.4392 27.0624 83.9666 27.7251 84.1662 28.0063L85.8885 30.4028C86.3913 30.9953 86.5136 30.8294 87.4223 30.9416C87.5533 31.0121 87.4964 31.0487 87.4921 31.4654L87.4739 33.2989C87.1651 33.4279 81.7029 33.3123 80.4073 33.3295C80.3813 33.3299 80.1974 33.3355 80.1883 33.3342C79.8834 33.2968 80.0664 33.3467 79.9948 33.225C79.925 32.5455 80.0018 31.8726 80.0018 31.1962C80.0018 30.6767 79.4869 30.1465 79.241 29.796C78.9187 29.3363 77.6643 27.6438 77.5251 27.2938L75.1547 27.3136L75.1473 30.9059L75.8435 31.1041L75.8465 33.332C74.1944 33.3256 72.5418 33.32 70.8897 33.3144C70.1389 33.3118 69.1287 33.3669 68.4122 33.3114C68.1146 33.2886 68.2239 33.1476 68.223 32.3185C68.2226 31.9078 68.2083 31.4731 68.2278 31.0659L68.7236 30.896C68.649 30.6526 68.2321 29.6958 68.0569 29.5767C67.7494 29.4555 63.5425 29.532 62.8229 29.532C62.4976 29.7031 62.1463 30.478 62.0431 30.9321L62.5544 31.1218C62.6698 31.3338 62.603 33.1153 62.5857 33.3093C62.1385 33.4086 57.3061 33.3204 55.9932 33.3286L55.674 33.3239C55.5647 33.3011 55.6189 33.3093 55.5586 33.2706L55.5668 31.0921C56.2643 30.727 56.371 31.3884 56.9483 30.1207C58.1537 27.4748 59.5976 24.6771 60.8325 22.0274L62.3766 18.7928C61.6752 18.4957 61.8479 18.9132 61.8566 16.4828C69.6869 16.4828 72.2811 16.4677 76.8198 16.4828ZM63.3586 26.9446L67.7863 26.9554L65.6141 22.1757C65.4796 22.3133 63.503 26.5142 63.3586 26.9446ZM75.1269 23.4374C76.6511 23.5028 78.3297 23.4524 79.8682 23.4451C81.4101 23.4378 82.7613 23.3075 82.7665 21.6713C82.7721 19.9392 81.3702 19.8674 79.7997 19.8635C78.3232 19.8597 76.5717 19.7814 75.1269 19.8756V23.4374Z" fill="#E31E24"/>
</g>
<defs>
<clipPath id="clip0_126_4082">
<rect width="149.804" height="80" fill="white"/>
</clipPath>
</defs>
</svg>
