<svg width="516" height="709" viewBox="0 0 516 709" fill="none" xmlns="http://www.w3.org/2000/svg">
<g opacity="0.1">
<path d="M429.475 500.924C377.526 553.025 239.432 691.52 224.343 706.653C223.562 707.437 222.43 707.428 221.648 706.644C206.728 691.681 72.2587 556.82 16.5248 500.924C-97.5083 386.56 -97.5083 201.138 16.5248 86.7735C130.558 -27.5912 315.442 -27.5912 429.475 86.7735C543.508 201.138 543.508 386.56 429.475 500.924Z" stroke="#B6C0C9" stroke-width="2" stroke-linecap="round" stroke-linejoin="round"/>
<path d="M332.5 293.849C332.5 354.5 283.475 403.667 223 403.667C162.525 403.667 113.5 354.5 113.5 293.849C113.5 233.198 162.525 184.031 223 184.031C283.475 184.031 332.5 233.198 332.5 293.849Z" stroke="#B6C0C9" stroke-width="2" stroke-linecap="round" stroke-linejoin="round"/>
</g>
</svg>
