<svg width="654" height="654" viewBox="0 0 654 654" fill="none" xmlns="http://www.w3.org/2000/svg">
<path d="M514.835 327C514.835 430.738 430.738 514.835 327 514.835C223.261 514.835 139.165 430.738 139.165 327C139.165 223.262 223.261 139.165 327 139.165C430.738 139.165 514.835 223.262 514.835 327ZM150.172 327C150.172 424.659 229.34 503.828 327 503.828C424.659 503.828 503.827 424.659 503.827 327C503.827 229.341 424.659 150.172 327 150.172C229.34 150.172 150.172 229.341 150.172 327Z" fill="url(#paint0_linear_126_4062)" fill-opacity="0.15"/>
<path d="M573.39 327C573.39 463.078 463.077 573.391 327 573.391C190.922 573.391 80.6089 463.078 80.6089 327C80.6089 190.922 190.922 80.6094 327 80.6094C463.077 80.6094 573.39 190.922 573.39 327ZM95.0474 327C95.0474 455.104 198.896 558.952 327 558.952C455.103 558.952 558.952 455.104 558.952 327C558.952 198.896 455.103 95.0479 327 95.0479C198.896 95.0479 95.0474 198.896 95.0474 327Z" fill="url(#paint1_linear_126_4062)" fill-opacity="0.1"/>
<path d="M654 327C654 507.597 507.597 654 327 654C146.403 654 0 507.597 0 327C0 146.403 146.403 0 327 0C507.597 0 654 146.403 654 327ZM19.1622 327C19.1622 497.014 156.986 634.838 327 634.838C497.014 634.838 634.838 497.014 634.838 327C634.838 156.986 497.014 19.1622 327 19.1622C156.986 19.1622 19.1622 156.986 19.1622 327Z" fill="url(#paint2_linear_126_4062)" fill-opacity="0.15"/>
<defs>
<linearGradient id="paint0_linear_126_4062" x1="372.247" y1="168.063" x2="207.607" y2="395.442" gradientUnits="userSpaceOnUse">
<stop stop-color="#CB2941"/>
<stop offset="1" stop-color="#CB2941" stop-opacity="0"/>
</linearGradient>
<linearGradient id="paint1_linear_126_4062" x1="-136.884" y1="818.641" x2="389.358" y2="199.622" gradientUnits="userSpaceOnUse">
<stop stop-color="#CB2941"/>
<stop offset="0.0520833" stop-color="#CB2941" stop-opacity="0"/>
</linearGradient>
<linearGradient id="paint2_linear_126_4062" x1="405.771" y1="50.3077" x2="119.15" y2="446.15" gradientUnits="userSpaceOnUse">
<stop stop-color="#CB2941"/>
<stop offset="1" stop-color="#CB2941" stop-opacity="0"/>
</linearGradient>
</defs>
</svg>
