<svg width="25" height="24" viewBox="0 0 25 24" fill="none" xmlns="http://www.w3.org/2000/svg">
<g clip-path="url(#clip0_164_2447)">
<path d="M5.39078 15.9536C7.75796 18.7833 10.6075 21.0112 13.8599 22.5877C15.0982 23.1745 16.7542 23.8707 18.5992 23.9901C18.7136 23.995 18.823 24 18.9374 24C20.1757 24 21.1703 23.5723 21.9809 22.6921C21.9859 22.6871 21.9958 22.6772 22.0008 22.6672C22.2892 22.3191 22.6175 22.0058 22.9606 21.6726C23.1943 21.4488 23.4331 21.2151 23.6618 20.9764C24.7211 19.8724 24.7211 18.47 23.6519 17.4007L20.6631 14.4119C20.1558 13.8848 19.5491 13.6063 18.9125 13.6063C18.276 13.6063 17.6643 13.8848 17.1421 14.407L15.3618 16.1873C15.1977 16.0928 15.0286 16.0083 14.8694 15.9287C14.6705 15.8293 14.4865 15.7348 14.3224 15.6303C12.7012 14.6009 11.2292 13.2582 9.82178 11.5325C9.11063 10.6324 8.63322 9.8765 8.30002 9.10568C8.76749 8.68297 9.20512 8.24037 9.62783 7.80771C9.77702 7.65354 9.93119 7.49938 10.0854 7.34521C10.6224 6.80812 10.9109 6.18649 10.9109 5.55491C10.9109 4.92333 10.6274 4.3017 10.0854 3.76461L8.60338 2.28264C8.42932 2.10858 8.26521 1.93949 8.09613 1.76544C7.7679 1.42727 7.42476 1.07915 7.08659 0.765852C6.57437 0.263572 5.97263 0 5.33608 0C4.7045 0 4.09778 0.263572 3.56567 0.770825L1.70574 2.63075C1.0294 3.30709 0.646478 4.12764 0.566909 5.0775C0.472421 6.26606 0.691235 7.52922 1.25816 9.05595C2.12845 11.4182 3.44134 13.6113 5.39078 15.9536ZM1.78034 5.18193C1.84001 4.52051 2.09364 3.9685 2.57105 3.49109L4.42103 1.64111C4.70947 1.36262 5.02775 1.2184 5.33608 1.2184C5.63943 1.2184 5.94776 1.36262 6.23123 1.65106C6.56442 1.95939 6.87773 2.28264 7.21589 2.62578C7.38498 2.79983 7.55903 2.97389 7.73309 3.15292L9.21507 4.63489C9.52339 4.94322 9.68253 5.25653 9.68253 5.56486C9.68253 5.87319 9.52339 6.18649 9.21507 6.49482C9.0609 6.64898 8.90674 6.80812 8.75257 6.96229C8.29008 7.42976 7.85742 7.87236 7.38001 8.29507C7.37006 8.30501 7.36509 8.30999 7.35514 8.31993C6.94238 8.7327 7.00703 9.12557 7.10649 9.42395C7.11146 9.43887 7.11643 9.44882 7.12141 9.46374C7.50433 10.3838 8.03645 11.259 8.86695 12.3034C10.3589 14.1434 11.9304 15.5707 13.661 16.6697C13.8748 16.809 14.1036 16.9184 14.3174 17.0278C14.5163 17.1272 14.7004 17.2217 14.8645 17.3261C14.8844 17.3361 14.8993 17.346 14.9192 17.356C15.0833 17.4405 15.2424 17.4803 15.4016 17.4803C15.7994 17.4803 16.058 17.2267 16.1425 17.1421L18.0025 15.2822C18.2909 14.9938 18.6042 14.8396 18.9125 14.8396C19.2905 14.8396 19.5988 15.0734 19.7928 15.2822L22.7915 18.276C23.3883 18.8728 23.3833 19.5193 22.7766 20.1509C22.5677 20.3746 22.3489 20.5885 22.1152 20.8123C21.7671 21.1504 21.404 21.4986 21.0758 21.8914C20.5039 22.5081 19.8226 22.7965 18.9424 22.7965C18.8578 22.7965 18.7683 22.7915 18.6838 22.7866C17.0526 22.6821 15.5358 22.0456 14.397 21.5035C11.3038 20.0066 8.58846 17.8831 6.33566 15.1877C4.48071 12.9548 3.23247 10.8761 2.40694 8.64816C1.89472 7.28056 1.70077 6.18152 1.78034 5.18193Z" fill="#F22E2F"/>
</g>
<defs>
<clipPath id="clip0_164_2447">
<rect width="24" height="24" fill="white" transform="translate(0.5)"/>
</clipPath>
</defs>
</svg>
