<svg width="28" height="46" viewBox="0 0 28 46" fill="none" xmlns="http://www.w3.org/2000/svg">
<path d="M14.0002 45.2431C11.5451 45.2431 9.5522 43.2503 9.5522 40.7951C9.5522 38.34 11.5451 36.3454 14.0002 36.3454C16.4553 36.3454 18.4482 38.34 18.4482 40.7951C18.4482 43.2503 16.4553 45.2431 14.0002 45.2431ZM21.7389 25.2023C19.6162 27.0387 18.4482 28.0556 18.4482 31.8974H9.5522C9.5522 23.9969 13.3744 20.6796 15.9024 18.4823C17.7549 16.8769 18.45 16.2743 18.45 14.1036C18.45 11.6503 16.4571 9.65559 14.002 9.65559C11.5486 9.65559 9.55397 11.652 9.55397 14.1036H0.654419C0.654419 6.74359 6.6402 0.757812 14.0002 0.757812C21.3602 0.757812 27.346 6.74359 27.346 14.1036C27.346 20.3329 24.1033 23.1471 21.7389 25.2023V25.2023Z" fill="white"/>
</svg>
